# xmcd CD database file
#
# Track frame offsets:
#	150
#	20742
#	70547
#	94852
#	125262
#	157171
#	200466
#	227061
#	271695
#	299102
#	309168
#
# Disc length: 4153 seconds
#
# Revision: 0
# Processed by: cddbd v1.4PL0 Copyright (c) Steve Scherf et al.
# Submitted via: CDex 1.50
#
DISCID=9810370b
DTITLE=Miracle Orchestra - Forks, Bends and Spoons
DYEAR=2000
DGENRE=Jazz
TTITLE0=Bad Hair Cut
TTITLE1=Canvas
TTITLE2=Yes Alone
TTITLE3=Tides
TTITLE4=Great Oscillate
TTITLE5=Black Rock
TTITLE6=Half Asleep
TTITLE7=This Time
TTITLE8=Eurohaus Destroyer
TTITLE9=Moon Swing
TTITLE10=Still Half Asleep
EXTD=YEAR: 2000
EXTT0=
EXTT1=
EXTT2=
EXTT3=
EXTT4=
EXTT5=
EXTT6=
EXTT7=
EXTT8=
EXTT9=
EXTT10=
PLAYORDER=
